<svg width="494" height="58" viewBox="0 0 494 58" fill="none" xmlns="http://www.w3.org/2000/svg">
<rect y="1" width="173" height="56" rx="4" fill="black"/>
<path d="M28.6 36.38C27.3467 36.38 26.24 36.1733 25.28 35.76C24.3333 35.3333 23.5333 34.7667 22.88 34.06C22.24 33.34 21.7533 32.5333 21.42 31.64C21.1 30.7333 20.94 29.7933 20.94 28.82V28.38C20.94 27.46 21.1 26.56 21.42 25.68C21.74 24.8 22.2067 24.0067 22.82 23.3C23.4467 22.5933 24.2133 22.0333 25.12 21.62C26.04 21.1933 27.0933 20.98 28.28 20.98C29.56 20.98 30.6933 21.22 31.68 21.7C32.6667 22.1667 33.46 22.8267 34.06 23.68C34.66 24.52 35.0133 25.5 35.12 26.62H32.26C32.1667 25.9933 31.9333 25.46 31.56 25.02C31.1867 24.5667 30.7133 24.22 30.14 23.98C29.58 23.74 28.96 23.62 28.28 23.62C27.6 23.62 26.98 23.74 26.42 23.98C25.8733 24.22 25.4067 24.56 25.02 25C24.6333 25.44 24.3333 25.9667 24.12 26.58C23.92 27.1933 23.82 27.8733 23.82 28.62C23.82 29.4333 23.9333 30.16 24.16 30.8C24.3867 31.44 24.7067 31.9867 25.12 32.44C25.5333 32.88 26.0333 33.22 26.62 33.46C27.2067 33.6867 27.8667 33.8 28.6 33.8C29.5733 33.8 30.4267 33.6 31.16 33.2C31.8933 32.7867 32.4267 32.2533 32.76 31.6L32.26 33.9V30.14H34.88V33.38C34.2533 34.3267 33.4 35.0667 32.32 35.6C31.24 36.12 30 36.38 28.6 36.38ZM28.14 30.7V28.58H36.1V30.7H28.14ZM43.4806 36.38C42.5473 36.38 41.7273 36.22 41.0206 35.9C40.3273 35.58 39.7473 35.1533 39.2806 34.62C38.8273 34.0733 38.4806 33.4667 38.2406 32.8C38.014 32.1333 37.9006 31.4533 37.9006 30.76V30.38C37.9006 29.66 38.014 28.9667 38.2406 28.3C38.4806 27.62 38.8273 27.02 39.2806 26.5C39.7473 25.9667 40.3206 25.5467 41.0006 25.24C41.6806 24.92 42.4673 24.76 43.3606 24.76C44.534 24.76 45.514 25.02 46.3006 25.54C47.1006 26.0467 47.7006 26.72 48.1006 27.56C48.5006 28.3867 48.7006 29.28 48.7006 30.24V31.24H39.0806V29.54H46.9606L46.1006 30.38C46.1006 29.6867 46.0006 29.0933 45.8006 28.6C45.6006 28.1067 45.294 27.7267 44.8806 27.46C44.4806 27.1933 43.974 27.06 43.3606 27.06C42.7473 27.06 42.2273 27.2 41.8006 27.48C41.374 27.76 41.0473 28.1667 40.8206 28.7C40.6073 29.22 40.5006 29.8467 40.5006 30.58C40.5006 31.26 40.6073 31.8667 40.8206 32.4C41.034 32.92 41.3606 33.3333 41.8006 33.64C42.2406 33.9333 42.8006 34.08 43.4806 34.08C44.1606 34.08 44.714 33.9467 45.1406 33.68C45.5673 33.4 45.8406 33.06 45.9606 32.66H48.5206C48.3606 33.4067 48.054 34.06 47.6006 34.62C47.1473 35.18 46.5673 35.6133 45.8606 35.92C45.1673 36.2267 44.374 36.38 43.4806 36.38ZM56.143 36.14C55.143 36.14 54.3163 36.0133 53.663 35.76C53.023 35.4933 52.543 35.0533 52.223 34.44C51.903 33.8133 51.743 32.9733 51.743 31.92L51.763 22.08H54.363L54.343 32.1C54.343 32.6333 54.483 33.0467 54.763 33.34C55.0563 33.62 55.4696 33.76 56.003 33.76H57.703V36.14H56.143ZM50.023 27.18V25.14H57.703V27.18H50.023ZM65.4127 36V21.4H68.2527V36H65.4127ZM72.0761 36V25.14H74.2761V29.8H74.0761C74.0761 28.6933 74.2228 27.7733 74.5161 27.04C74.8094 26.2933 75.2428 25.7333 75.8161 25.36C76.4028 24.9867 77.1294 24.8 77.9961 24.8H78.1161C79.4094 24.8 80.3894 25.22 81.0561 26.06C81.7228 26.8867 82.0561 28.1267 82.0561 29.78V36H79.2761V29.54C79.2761 28.8733 79.0828 28.3333 78.6961 27.92C78.3228 27.5067 77.8028 27.3 77.1361 27.3C76.4561 27.3 75.9028 27.5133 75.4761 27.94C75.0628 28.3533 74.8561 28.9133 74.8561 29.62V36H72.0761ZM93.2613 36V23.5H96.1013V36H93.2613ZM89.0413 23.9V21.4H100.321V23.9H89.0413ZM106.641 36.38C105.681 36.38 104.834 36.2267 104.101 35.92C103.367 35.6133 102.747 35.2 102.241 34.68C101.734 34.1467 101.347 33.5467 101.081 32.88C100.827 32.2133 100.701 31.52 100.701 30.8V30.38C100.701 29.6333 100.834 28.9267 101.101 28.26C101.381 27.58 101.774 26.98 102.281 26.46C102.801 25.9267 103.427 25.5133 104.161 25.22C104.894 24.9133 105.721 24.76 106.641 24.76C107.561 24.76 108.387 24.9133 109.121 25.22C109.854 25.5133 110.474 25.9267 110.981 26.46C111.501 26.98 111.894 27.58 112.161 28.26C112.427 28.9267 112.561 29.6333 112.561 30.38V30.8C112.561 31.52 112.427 32.2133 112.161 32.88C111.907 33.5467 111.527 34.1467 111.021 34.68C110.514 35.2 109.894 35.6133 109.161 35.92C108.427 36.2267 107.587 36.38 106.641 36.38ZM106.641 34C107.321 34 107.894 33.8533 108.361 33.56C108.827 33.2533 109.181 32.8467 109.421 32.34C109.661 31.82 109.781 31.2333 109.781 30.58C109.781 29.9133 109.654 29.3267 109.401 28.82C109.161 28.3 108.801 27.8933 108.321 27.6C107.854 27.2933 107.294 27.14 106.641 27.14C105.987 27.14 105.421 27.2933 104.941 27.6C104.474 27.8933 104.114 28.3 103.861 28.82C103.607 29.3267 103.481 29.9133 103.481 30.58C103.481 31.2333 103.601 31.82 103.841 32.34C104.094 32.8467 104.454 33.2533 104.921 33.56C105.387 33.8533 105.961 34 106.641 34ZM119.095 36.34C117.842 36.34 116.868 35.9267 116.175 35.1C115.495 34.2733 115.155 33.0467 115.155 31.42V25.12H117.935V31.66C117.935 32.3267 118.122 32.86 118.495 33.26C118.868 33.6467 119.375 33.84 120.015 33.84C120.655 33.84 121.175 33.6333 121.575 33.22C121.988 32.8067 122.195 32.2467 122.195 31.54V25.12H124.975V36H122.775V31.38H122.995C122.995 32.4733 122.855 33.3867 122.575 34.12C122.295 34.8533 121.875 35.4067 121.315 35.78C120.755 36.1533 120.055 36.34 119.215 36.34H119.095ZM133.388 36.38C132.442 36.38 131.622 36.22 130.928 35.9C130.248 35.58 129.675 35.1533 129.208 34.62C128.755 34.0867 128.415 33.4867 128.188 32.82C127.962 32.1533 127.848 31.4733 127.848 30.78V30.4C127.848 29.6667 127.962 28.9667 128.188 28.3C128.428 27.62 128.782 27.02 129.248 26.5C129.715 25.9667 130.288 25.5467 130.968 25.24C131.662 24.92 132.462 24.76 133.368 24.76C134.315 24.76 135.162 24.9467 135.908 25.32C136.655 25.68 137.248 26.1867 137.688 26.84C138.142 27.4933 138.395 28.2533 138.448 29.12H135.748C135.682 28.56 135.442 28.0933 135.028 27.72C134.628 27.3467 134.075 27.16 133.368 27.16C132.755 27.16 132.242 27.3067 131.828 27.6C131.428 27.8933 131.128 28.3 130.928 28.82C130.728 29.3267 130.628 29.9133 130.628 30.58C130.628 31.22 130.722 31.8 130.908 32.32C131.108 32.84 131.408 33.2467 131.808 33.54C132.222 33.8333 132.748 33.98 133.388 33.98C133.868 33.98 134.282 33.8933 134.628 33.72C134.975 33.5467 135.248 33.3067 135.448 33C135.662 32.6933 135.795 32.3467 135.848 31.96H138.548C138.495 32.84 138.235 33.6133 137.768 34.28C137.315 34.9333 136.708 35.4467 135.948 35.82C135.202 36.1933 134.348 36.38 133.388 36.38ZM141.175 36V21.4H143.955V29.92H143.475C143.475 28.8267 143.615 27.9 143.895 27.14C144.175 26.38 144.589 25.8 145.135 25.4C145.695 25 146.402 24.8 147.255 24.8H147.375C148.615 24.8 149.555 25.2267 150.195 26.08C150.835 26.9333 151.155 28.1733 151.155 29.8V36H148.375V29.54C148.375 28.8467 148.175 28.3 147.775 27.9C147.389 27.5 146.875 27.3 146.235 27.3C145.555 27.3 145.002 27.5267 144.575 27.98C144.162 28.42 143.955 29 143.955 29.72V36H141.175Z" fill="white"/>
<rect x="197" y="1" width="56" height="56" rx="4" fill="black"/>
<g clip-path="url(#clip0_269_408)">
<path d="M235 29C235 23.4771 230.523 19 225 19C219.477 19 215 23.4771 215 29C215 33.9912 218.657 38.1283 223.438 38.8785V31.8906H220.898V29H223.438V26.7969C223.438 24.2906 224.93 22.9063 227.215 22.9063C228.308 22.9063 229.453 23.1016 229.453 23.1016V25.5625H228.192C226.95 25.5625 226.562 26.3334 226.562 27.125V29H229.336L228.893 31.8906H226.562V38.8785C231.343 38.1283 235 33.9912 235 29Z" fill="white"/>
</g>
<rect x="277" y="1" width="56" height="56" rx="4" stroke="black" stroke-width="2"/>
<path fill-rule="evenodd" clip-rule="evenodd" d="M315 29C315 34.5228 310.523 39 305 39C299.477 39 295 34.5228 295 29C295 23.4772 299.477 19 305 19C310.523 19 315 23.4772 315 29ZM310.205 27.538C311.012 27.538 311.667 28.193 311.667 29C311.667 29.5965 311.304 30.1111 310.825 30.345C310.848 30.4854 310.86 30.6257 310.86 30.7778C310.86 33.0234 308.251 34.8362 305.023 34.8362C301.795 34.8362 299.187 33.0234 299.187 30.7778C299.187 30.6257 299.199 30.4737 299.222 30.3333C298.708 30.0994 298.357 29.5965 298.357 29C298.357 28.193 299.012 27.538 299.819 27.538C300.205 27.538 300.567 27.7017 300.825 27.9473C301.83 27.2105 303.222 26.7544 304.778 26.7076L305.515 23.2222C305.538 23.152 305.573 23.0935 305.632 23.0585C305.69 23.0234 305.76 23.0117 305.83 23.0234L308.251 23.538C308.415 23.1871 308.766 22.9532 309.175 22.9532C309.749 22.9532 310.216 23.421 310.216 23.9941C310.216 24.5672 309.749 25.0351 309.175 25.0351C308.614 25.0351 308.158 24.5906 308.135 24.0409L305.971 23.5848L305.304 26.7076C306.825 26.7661 308.205 27.2339 309.199 27.9473C309.456 27.69 309.807 27.538 310.205 27.538ZM302.708 29C302.135 29 301.667 29.4678 301.667 30.0409C301.667 30.614 302.135 31.0819 302.708 31.0819C303.281 31.0819 303.749 30.614 303.749 30.0409C303.749 29.4678 303.281 29 302.708 29ZM305.012 33.5497C305.409 33.5497 306.766 33.5029 307.48 32.7895C307.585 32.6842 307.585 32.5204 307.503 32.4035C307.398 32.2982 307.222 32.2982 307.117 32.4035C306.661 32.8479 305.713 33.0117 305.023 33.0117C304.333 33.0117 303.374 32.8479 302.93 32.4035C302.825 32.2982 302.649 32.2982 302.544 32.4035C302.439 32.5088 302.439 32.6842 302.544 32.7895C303.246 33.4912 304.614 33.5497 305.012 33.5497ZM306.251 30.0409C306.251 30.614 306.719 31.0819 307.292 31.0819C307.866 31.0819 308.333 30.614 308.333 30.0409C308.333 29.4678 307.866 29 307.292 29C306.719 29 306.251 29.4678 306.251 30.0409Z" fill="black"/>
<rect x="357" y="1" width="56" height="56" rx="4" stroke="black" stroke-width="2"/>
<path d="M381.292 37.1251C388.837 37.1251 392.965 30.8724 392.965 25.4517C392.965 25.2759 392.961 25.0962 392.954 24.9204C393.757 24.3397 394.45 23.6203 395 22.7962C394.252 23.129 393.458 23.3463 392.645 23.4407C393.501 22.9275 394.142 22.1213 394.449 21.1716C393.644 21.6489 392.763 21.9856 391.845 22.1673C391.226 21.5098 390.407 21.0744 389.516 20.9285C388.625 20.7826 387.711 20.9343 386.915 21.3602C386.119 21.7861 385.485 22.4624 385.112 23.2845C384.738 24.1067 384.646 25.029 384.85 25.9087C383.219 25.8269 381.623 25.4032 380.167 24.6652C378.71 23.9272 377.425 22.8913 376.394 21.6247C375.87 22.5278 375.71 23.5965 375.946 24.6135C376.182 25.6306 376.796 26.5197 377.664 27.1001C377.012 27.0794 376.375 26.904 375.805 26.5884V26.6392C375.804 27.5869 376.132 28.5056 376.732 29.2391C377.332 29.9726 378.168 30.4756 379.097 30.6626C378.493 30.8277 377.86 30.8518 377.246 30.7329C377.508 31.548 378.018 32.2609 378.705 32.7721C379.392 33.2833 380.221 33.5673 381.077 33.5845C379.624 34.726 377.828 35.3452 375.98 35.3423C375.653 35.3418 375.325 35.3217 375 35.2821C376.877 36.4866 379.061 37.1263 381.292 37.1251Z" fill="black"/>
<rect x="437" y="1" width="56" height="56" rx="4" stroke="black" stroke-width="2"/>
<path d="M463.24 27.3901C462.67 27.3901 462.22 27.8901 462.22 28.5001C462.22 29.1101 462.68 29.6101 463.24 29.6101C463.81 29.6101 464.26 29.1101 464.26 28.5001C464.27 27.8901 463.81 27.3901 463.24 27.3901ZM466.89 27.3901C466.32 27.3901 465.87 27.8901 465.87 28.5001C465.87 29.1101 466.33 29.6101 466.89 29.6101C467.46 29.6101 467.91 29.1101 467.91 28.5001C467.91 27.8901 467.46 27.3901 466.89 27.3901Z" fill="black"/>
<path d="M471.75 19H458.35C457.22 19 456.3 19.92 456.3 21.06V34.58C456.3 35.72 457.22 36.64 458.35 36.64H469.69L469.16 34.79L470.44 35.98L471.65 37.1L473.8 39V21.06C473.8 19.92 472.88 19 471.75 19ZM467.89 32.06C467.89 32.06 467.53 31.63 467.23 31.25C468.54 30.88 469.04 30.06 469.04 30.06C468.63 30.33 468.24 30.52 467.89 30.65C467.39 30.86 466.91 31 466.44 31.08C465.48 31.26 464.6 31.21 463.85 31.07C463.28 30.96 462.79 30.8 462.38 30.64C462.15 30.55 461.9 30.44 461.65 30.3C461.62 30.28 461.59 30.27 461.56 30.25C461.54 30.24 461.53 30.23 461.52 30.22C461.34 30.12 461.24 30.05 461.24 30.05C461.24 30.05 461.72 30.85 462.99 31.23C462.69 31.61 462.32 32.06 462.32 32.06C460.11 31.99 459.27 30.54 459.27 30.54C459.27 27.32 460.71 24.71 460.71 24.71C462.15 23.63 463.52 23.66 463.52 23.66L463.62 23.78C461.82 24.3 460.99 25.09 460.99 25.09C460.99 25.09 461.21 24.97 461.58 24.8C462.65 24.33 463.5 24.2 463.85 24.17C463.91 24.16 463.96 24.15 464.02 24.15C464.63 24.07 465.32 24.05 466.04 24.13C466.99 24.24 468.01 24.52 469.05 25.09C469.05 25.09 468.26 24.34 466.56 23.82L466.7 23.66C466.7 23.66 468.07 23.63 469.51 24.71C469.51 24.71 470.95 27.32 470.95 30.54C470.95 30.54 470.1 31.99 467.89 32.06Z" fill="black"/>
<defs>
<clipPath id="clip0_269_408">
<rect width="20" height="20" fill="white" transform="translate(215 19)"/>
</clipPath>
</defs>
</svg>
