<svg width="321" height="64" viewBox="0 0 321 64" fill="none" xmlns="http://www.w3.org/2000/svg">
<rect y="4" width="56" height="56" rx="4" fill="black"/>
<g clip-path="url(#clip0_181_965)">
<path d="M38 32C38 26.4771 33.5229 22 28 22C22.4771 22 18 26.4771 18 32C18 36.9912 21.6568 41.1283 26.4375 41.8785V34.8906H23.8984V32H26.4375V29.7969C26.4375 27.2906 27.9305 25.9063 30.2146 25.9063C31.3084 25.9063 32.4531 26.1016 32.4531 26.1016V28.5625H31.1922C29.95 28.5625 29.5625 29.3334 29.5625 30.125V32H32.3359L31.8926 34.8906H29.5625V41.8785C34.3432 41.1283 38 36.9912 38 32Z" fill="white"/>
</g>
<rect x="88" y="4" width="56" height="56" rx="4" stroke="black" stroke-width="2"/>
<path fill-rule="evenodd" clip-rule="evenodd" d="M126 32C126 37.5228 121.523 42 116 42C110.477 42 106 37.5228 106 32C106 26.4772 110.477 22 116 22C121.523 22 126 26.4772 126 32ZM121.205 30.538C122.012 30.538 122.667 31.193 122.667 32C122.667 32.5965 122.304 33.1111 121.825 33.345C121.848 33.4854 121.86 33.6257 121.86 33.7778C121.86 36.0234 119.251 37.8362 116.023 37.8362C112.795 37.8362 110.187 36.0234 110.187 33.7778C110.187 33.6257 110.199 33.4737 110.222 33.3333C109.708 33.0994 109.357 32.5965 109.357 32C109.357 31.193 110.012 30.538 110.819 30.538C111.205 30.538 111.567 30.7017 111.825 30.9473C112.83 30.2105 114.222 29.7544 115.778 29.7076L116.515 26.2222C116.538 26.152 116.573 26.0935 116.632 26.0585C116.69 26.0234 116.76 26.0117 116.83 26.0234L119.251 26.538C119.415 26.1871 119.766 25.9532 120.175 25.9532C120.749 25.9532 121.216 26.421 121.216 26.9941C121.216 27.5672 120.749 28.0351 120.175 28.0351C119.614 28.0351 119.158 27.5906 119.135 27.0409L116.971 26.5848L116.304 29.7076C117.825 29.7661 119.205 30.2339 120.199 30.9473C120.456 30.69 120.807 30.538 121.205 30.538ZM113.708 32C113.135 32 112.667 32.4678 112.667 33.0409C112.667 33.614 113.135 34.0819 113.708 34.0819C114.281 34.0819 114.749 33.614 114.749 33.0409C114.749 32.4678 114.281 32 113.708 32ZM116.012 36.5497C116.409 36.5497 117.766 36.5029 118.48 35.7895C118.585 35.6842 118.585 35.5204 118.503 35.4035C118.398 35.2982 118.222 35.2982 118.117 35.4035C117.661 35.8479 116.713 36.0117 116.023 36.0117C115.333 36.0117 114.374 35.8479 113.93 35.4035C113.825 35.2982 113.649 35.2982 113.544 35.4035C113.439 35.5088 113.439 35.6842 113.544 35.7895C114.246 36.4912 115.614 36.5497 116.012 36.5497ZM117.251 33.0409C117.251 33.614 117.719 34.0819 118.292 34.0819C118.866 34.0819 119.333 33.614 119.333 33.0409C119.333 32.4678 118.866 32 118.292 32C117.719 32 117.251 32.4678 117.251 33.0409Z" fill="black"/>
<rect x="176" y="4" width="56" height="56" rx="4" stroke="black" stroke-width="2"/>
<path d="M200.292 40.125C207.837 40.125 211.965 33.8723 211.965 28.4516C211.965 28.2758 211.961 28.0961 211.954 27.9204C212.757 27.3396 213.45 26.6203 214 25.7961C213.252 26.1289 212.458 26.3462 211.645 26.4407C212.501 25.9275 213.142 25.1213 213.449 24.1715C212.644 24.6489 211.763 24.9856 210.845 25.1672C210.226 24.5097 209.407 24.0743 208.516 23.9284C207.625 23.7825 206.711 23.9343 205.915 24.3601C205.119 24.786 204.485 25.4623 204.112 26.2845C203.738 27.1067 203.646 28.0289 203.85 28.9086C202.219 28.8268 200.623 28.4031 199.167 27.6651C197.71 26.9271 196.425 25.8913 195.394 24.6247C194.87 25.5278 194.71 26.5964 194.946 27.6135C195.182 28.6305 195.796 29.5196 196.664 30.1C196.012 30.0794 195.375 29.904 194.805 29.5883V29.6391C194.804 30.5869 195.132 31.5055 195.732 32.239C196.332 32.9725 197.168 33.4755 198.097 33.6625C197.493 33.8277 196.86 33.8517 196.246 33.7329C196.508 34.5479 197.018 35.2608 197.705 35.772C198.392 36.2832 199.221 36.5672 200.077 36.5844C198.624 37.726 196.828 38.3452 194.98 38.3422C194.653 38.3417 194.325 38.3216 194 38.2821C195.877 39.4865 198.061 40.1262 200.292 40.125Z" fill="black"/>
<rect x="264" y="4" width="56" height="56" rx="4" stroke="black" stroke-width="2"/>
<path d="M290.24 30.39C289.67 30.39 289.22 30.89 289.22 31.5C289.22 32.11 289.68 32.61 290.24 32.61C290.81 32.61 291.26 32.11 291.26 31.5C291.27 30.89 290.81 30.39 290.24 30.39ZM293.89 30.39C293.32 30.39 292.87 30.89 292.87 31.5C292.87 32.11 293.33 32.61 293.89 32.61C294.46 32.61 294.91 32.11 294.91 31.5C294.91 30.89 294.46 30.39 293.89 30.39Z" fill="black"/>
<path d="M298.75 22H285.35C284.22 22 283.3 22.92 283.3 24.06V37.58C283.3 38.72 284.22 39.64 285.35 39.64H296.69L296.16 37.79L297.44 38.98L298.65 40.1L300.8 42V24.06C300.8 22.92 299.88 22 298.75 22ZM294.89 35.06C294.89 35.06 294.53 34.63 294.23 34.25C295.54 33.88 296.04 33.06 296.04 33.06C295.63 33.33 295.24 33.52 294.89 33.65C294.39 33.86 293.91 34 293.44 34.08C292.48 34.26 291.6 34.21 290.85 34.07C290.28 33.96 289.79 33.8 289.38 33.64C289.15 33.55 288.9 33.44 288.65 33.3C288.62 33.28 288.59 33.27 288.56 33.25C288.54 33.24 288.53 33.23 288.52 33.22C288.34 33.12 288.24 33.05 288.24 33.05C288.24 33.05 288.72 33.85 289.99 34.23C289.69 34.61 289.32 35.06 289.32 35.06C287.11 34.99 286.27 33.54 286.27 33.54C286.27 30.32 287.71 27.71 287.71 27.71C289.15 26.63 290.52 26.66 290.52 26.66L290.62 26.78C288.82 27.3 287.99 28.09 287.99 28.09C287.99 28.09 288.21 27.97 288.58 27.8C289.65 27.33 290.5 27.2 290.85 27.17C290.91 27.16 290.96 27.15 291.02 27.15C291.63 27.07 292.32 27.05 293.04 27.13C293.99 27.24 295.01 27.52 296.05 28.09C296.05 28.09 295.26 27.34 293.56 26.82L293.7 26.66C293.7 26.66 295.07 26.63 296.51 27.71C296.51 27.71 297.95 30.32 297.95 33.54C297.95 33.54 297.1 34.99 294.89 35.06Z" fill="black"/>
<defs>
<clipPath id="clip0_181_965">
<rect width="20" height="20" fill="white" transform="translate(18 22)"/>
</clipPath>
</defs>
</svg>
